<mxfile host="app.diagrams.net" modified="2024-01-25T06:42:48.091Z" agent="Mozilla/5.0 (Windows NT 10.0; Win64; x64) AppleWebKit/537.36 (KHTML, like Gecko) Chrome/120.0.0.0 Safari/537.36" etag="DGlWjx8QTYofZ5mjT-nd" version="22.1.21" type="device">
  <diagram id="R2lEEEUBdFMjLlhIrx00" name="Page-1">
    <mxGraphModel dx="656" dy="386" grid="1" gridSize="10" guides="1" tooltips="1" connect="1" arrows="1" fold="1" page="1" pageScale="1" pageWidth="850" pageHeight="1100" math="0" shadow="0" extFonts="Permanent Marker^https://fonts.googleapis.com/css?family=Permanent+Marker">
      <root>
        <mxCell id="0" />
        <mxCell id="1" parent="0" />
        <mxCell id="DxsLvJLaP1TClayyJhD2-66" value="" style="group" vertex="1" connectable="0" parent="1">
          <mxGeometry x="200" y="550" width="280" height="220" as="geometry" />
        </mxCell>
        <mxCell id="DxsLvJLaP1TClayyJhD2-49" value="" style="group" vertex="1" connectable="0" parent="DxsLvJLaP1TClayyJhD2-66">
          <mxGeometry x="10" y="10" width="250" height="190" as="geometry" />
        </mxCell>
        <mxCell id="DxsLvJLaP1TClayyJhD2-3" value="ssn" style="ellipse;whiteSpace=wrap;html=1;" vertex="1" parent="DxsLvJLaP1TClayyJhD2-49">
          <mxGeometry y="140" width="70" height="50" as="geometry" />
        </mxCell>
        <mxCell id="DxsLvJLaP1TClayyJhD2-5" value="rank" style="ellipse;whiteSpace=wrap;html=1;" vertex="1" parent="DxsLvJLaP1TClayyJhD2-49">
          <mxGeometry x="180" width="70" height="50" as="geometry" />
        </mxCell>
        <mxCell id="DxsLvJLaP1TClayyJhD2-6" value="name" style="ellipse;whiteSpace=wrap;html=1;" vertex="1" parent="DxsLvJLaP1TClayyJhD2-49">
          <mxGeometry x="80" y="140" width="70" height="50" as="geometry" />
        </mxCell>
        <mxCell id="DxsLvJLaP1TClayyJhD2-7" value="age" style="ellipse;whiteSpace=wrap;html=1;" vertex="1" parent="DxsLvJLaP1TClayyJhD2-49">
          <mxGeometry x="180" y="140" width="70" height="50" as="geometry" />
        </mxCell>
        <mxCell id="DxsLvJLaP1TClayyJhD2-8" value="speciality" style="ellipse;whiteSpace=wrap;html=1;" vertex="1" parent="DxsLvJLaP1TClayyJhD2-49">
          <mxGeometry x="180" y="70" width="70" height="50" as="geometry" />
        </mxCell>
        <mxCell id="DxsLvJLaP1TClayyJhD2-54" value="" style="rounded=0;whiteSpace=wrap;html=1;pointerEvents=0;align=center;verticalAlign=top;fontFamily=Helvetica;fontSize=12;fontColor=default;fillColor=none;gradientColor=none;" vertex="1" parent="DxsLvJLaP1TClayyJhD2-66">
          <mxGeometry width="280" height="220" as="geometry" />
        </mxCell>
        <mxCell id="DxsLvJLaP1TClayyJhD2-2" value="Professor" style="rounded=0;whiteSpace=wrap;html=1;" vertex="1" parent="DxsLvJLaP1TClayyJhD2-66">
          <mxGeometry width="120" height="60" as="geometry" />
        </mxCell>
        <mxCell id="DxsLvJLaP1TClayyJhD2-10" value="" style="endArrow=none;html=1;rounded=0;" edge="1" parent="DxsLvJLaP1TClayyJhD2-66" source="DxsLvJLaP1TClayyJhD2-6" target="DxsLvJLaP1TClayyJhD2-2">
          <mxGeometry width="50" height="50" relative="1" as="geometry">
            <mxPoint x="230" y="210" as="sourcePoint" />
            <mxPoint x="280" y="160" as="targetPoint" />
          </mxGeometry>
        </mxCell>
        <mxCell id="DxsLvJLaP1TClayyJhD2-11" value="" style="endArrow=none;html=1;rounded=0;" edge="1" parent="DxsLvJLaP1TClayyJhD2-66" source="DxsLvJLaP1TClayyJhD2-7" target="DxsLvJLaP1TClayyJhD2-2">
          <mxGeometry width="50" height="50" relative="1" as="geometry">
            <mxPoint x="240" y="220" as="sourcePoint" />
            <mxPoint x="290" y="170" as="targetPoint" />
          </mxGeometry>
        </mxCell>
        <mxCell id="DxsLvJLaP1TClayyJhD2-12" value="" style="endArrow=none;html=1;rounded=0;" edge="1" parent="DxsLvJLaP1TClayyJhD2-66" source="DxsLvJLaP1TClayyJhD2-8" target="DxsLvJLaP1TClayyJhD2-2">
          <mxGeometry width="50" height="50" relative="1" as="geometry">
            <mxPoint x="250" y="230" as="sourcePoint" />
            <mxPoint x="300" y="180" as="targetPoint" />
          </mxGeometry>
        </mxCell>
        <mxCell id="DxsLvJLaP1TClayyJhD2-13" value="" style="endArrow=none;html=1;rounded=0;" edge="1" parent="DxsLvJLaP1TClayyJhD2-66" source="DxsLvJLaP1TClayyJhD2-5" target="DxsLvJLaP1TClayyJhD2-2">
          <mxGeometry width="50" height="50" relative="1" as="geometry">
            <mxPoint x="260" y="240" as="sourcePoint" />
            <mxPoint x="310" y="190" as="targetPoint" />
          </mxGeometry>
        </mxCell>
        <mxCell id="DxsLvJLaP1TClayyJhD2-15" value="" style="endArrow=none;html=1;rounded=0;" edge="1" parent="DxsLvJLaP1TClayyJhD2-66" source="DxsLvJLaP1TClayyJhD2-3" target="DxsLvJLaP1TClayyJhD2-2">
          <mxGeometry width="50" height="50" relative="1" as="geometry">
            <mxPoint x="280" y="260" as="sourcePoint" />
            <mxPoint x="330" y="210" as="targetPoint" />
          </mxGeometry>
        </mxCell>
        <mxCell id="DxsLvJLaP1TClayyJhD2-67" value="" style="group" vertex="1" connectable="0" parent="1">
          <mxGeometry x="730" y="550" width="280" height="220" as="geometry" />
        </mxCell>
        <mxCell id="DxsLvJLaP1TClayyJhD2-53" value="" style="group" vertex="1" connectable="0" parent="DxsLvJLaP1TClayyJhD2-67">
          <mxGeometry x="25" y="30" width="230" height="160" as="geometry" />
        </mxCell>
        <mxCell id="DxsLvJLaP1TClayyJhD2-17" value="dno" style="ellipse;whiteSpace=wrap;html=1;" vertex="1" parent="DxsLvJLaP1TClayyJhD2-53">
          <mxGeometry x="25" y="110" width="70" height="50" as="geometry" />
        </mxCell>
        <mxCell id="DxsLvJLaP1TClayyJhD2-19" value="dname" style="ellipse;whiteSpace=wrap;html=1;" vertex="1" parent="DxsLvJLaP1TClayyJhD2-53">
          <mxGeometry x="160" y="110" width="70" height="50" as="geometry" />
        </mxCell>
        <mxCell id="DxsLvJLaP1TClayyJhD2-20" value="office" style="ellipse;whiteSpace=wrap;html=1;" vertex="1" parent="DxsLvJLaP1TClayyJhD2-53">
          <mxGeometry x="160" y="5" width="70" height="50" as="geometry" />
        </mxCell>
        <mxCell id="DxsLvJLaP1TClayyJhD2-55" value="" style="rounded=0;whiteSpace=wrap;html=1;pointerEvents=0;align=center;verticalAlign=top;fontFamily=Helvetica;fontSize=12;fontColor=default;fillColor=none;gradientColor=none;" vertex="1" parent="DxsLvJLaP1TClayyJhD2-67">
          <mxGeometry width="280" height="220" as="geometry" />
        </mxCell>
        <mxCell id="DxsLvJLaP1TClayyJhD2-16" value="Department" style="rounded=0;whiteSpace=wrap;html=1;" vertex="1" parent="DxsLvJLaP1TClayyJhD2-67">
          <mxGeometry width="120" height="60" as="geometry" />
        </mxCell>
        <mxCell id="DxsLvJLaP1TClayyJhD2-22" value="" style="endArrow=none;html=1;rounded=0;" edge="1" parent="DxsLvJLaP1TClayyJhD2-67" source="DxsLvJLaP1TClayyJhD2-19" target="DxsLvJLaP1TClayyJhD2-16">
          <mxGeometry width="50" height="50" relative="1" as="geometry">
            <mxPoint x="235" y="200" as="sourcePoint" />
            <mxPoint x="285" y="150" as="targetPoint" />
          </mxGeometry>
        </mxCell>
        <mxCell id="DxsLvJLaP1TClayyJhD2-23" value="" style="endArrow=none;html=1;rounded=0;" edge="1" parent="DxsLvJLaP1TClayyJhD2-67" source="DxsLvJLaP1TClayyJhD2-20" target="DxsLvJLaP1TClayyJhD2-16">
          <mxGeometry width="50" height="50" relative="1" as="geometry">
            <mxPoint x="245" y="210" as="sourcePoint" />
            <mxPoint x="295" y="160" as="targetPoint" />
          </mxGeometry>
        </mxCell>
        <mxCell id="DxsLvJLaP1TClayyJhD2-26" value="" style="endArrow=none;html=1;rounded=0;" edge="1" parent="DxsLvJLaP1TClayyJhD2-67" source="DxsLvJLaP1TClayyJhD2-17" target="DxsLvJLaP1TClayyJhD2-16">
          <mxGeometry width="50" height="50" relative="1" as="geometry">
            <mxPoint x="285" y="250" as="sourcePoint" />
            <mxPoint x="335" y="200" as="targetPoint" />
          </mxGeometry>
        </mxCell>
        <mxCell id="DxsLvJLaP1TClayyJhD2-68" value="" style="group" vertex="1" connectable="0" parent="1">
          <mxGeometry x="200" y="120" width="280" height="220" as="geometry" />
        </mxCell>
        <mxCell id="DxsLvJLaP1TClayyJhD2-52" value="" style="group" vertex="1" connectable="0" parent="DxsLvJLaP1TClayyJhD2-68">
          <mxGeometry x="15" y="15" width="250" height="190" as="geometry" />
        </mxCell>
        <mxCell id="DxsLvJLaP1TClayyJhD2-27" value="Project" style="rounded=0;whiteSpace=wrap;html=1;" vertex="1" parent="DxsLvJLaP1TClayyJhD2-52">
          <mxGeometry x="-15" y="-15" width="120" height="60" as="geometry" />
        </mxCell>
        <mxCell id="DxsLvJLaP1TClayyJhD2-28" value="pid" style="ellipse;whiteSpace=wrap;html=1;" vertex="1" parent="DxsLvJLaP1TClayyJhD2-52">
          <mxGeometry y="140" width="70" height="50" as="geometry" />
        </mxCell>
        <mxCell id="DxsLvJLaP1TClayyJhD2-29" value="budget" style="ellipse;whiteSpace=wrap;html=1;" vertex="1" parent="DxsLvJLaP1TClayyJhD2-52">
          <mxGeometry x="180" width="70" height="50" as="geometry" />
        </mxCell>
        <mxCell id="DxsLvJLaP1TClayyJhD2-30" value="sponsor" style="ellipse;whiteSpace=wrap;html=1;" vertex="1" parent="DxsLvJLaP1TClayyJhD2-52">
          <mxGeometry x="80" y="140" width="70" height="50" as="geometry" />
        </mxCell>
        <mxCell id="DxsLvJLaP1TClayyJhD2-31" value="start_date" style="ellipse;whiteSpace=wrap;html=1;" vertex="1" parent="DxsLvJLaP1TClayyJhD2-52">
          <mxGeometry x="180" y="140" width="70" height="50" as="geometry" />
        </mxCell>
        <mxCell id="DxsLvJLaP1TClayyJhD2-32" value="end_date" style="ellipse;whiteSpace=wrap;html=1;" vertex="1" parent="DxsLvJLaP1TClayyJhD2-52">
          <mxGeometry x="180" y="70" width="70" height="50" as="geometry" />
        </mxCell>
        <mxCell id="DxsLvJLaP1TClayyJhD2-33" value="" style="endArrow=none;html=1;rounded=0;" edge="1" parent="DxsLvJLaP1TClayyJhD2-52" source="DxsLvJLaP1TClayyJhD2-30" target="DxsLvJLaP1TClayyJhD2-27">
          <mxGeometry width="50" height="50" relative="1" as="geometry">
            <mxPoint x="220" y="200" as="sourcePoint" />
            <mxPoint x="270" y="150" as="targetPoint" />
          </mxGeometry>
        </mxCell>
        <mxCell id="DxsLvJLaP1TClayyJhD2-34" value="" style="endArrow=none;html=1;rounded=0;" edge="1" parent="DxsLvJLaP1TClayyJhD2-52" source="DxsLvJLaP1TClayyJhD2-31" target="DxsLvJLaP1TClayyJhD2-27">
          <mxGeometry width="50" height="50" relative="1" as="geometry">
            <mxPoint x="230" y="210" as="sourcePoint" />
            <mxPoint x="280" y="160" as="targetPoint" />
          </mxGeometry>
        </mxCell>
        <mxCell id="DxsLvJLaP1TClayyJhD2-35" value="" style="endArrow=none;html=1;rounded=0;" edge="1" parent="DxsLvJLaP1TClayyJhD2-52" source="DxsLvJLaP1TClayyJhD2-32" target="DxsLvJLaP1TClayyJhD2-27">
          <mxGeometry width="50" height="50" relative="1" as="geometry">
            <mxPoint x="240" y="220" as="sourcePoint" />
            <mxPoint x="290" y="170" as="targetPoint" />
          </mxGeometry>
        </mxCell>
        <mxCell id="DxsLvJLaP1TClayyJhD2-36" value="" style="endArrow=none;html=1;rounded=0;" edge="1" parent="DxsLvJLaP1TClayyJhD2-52" source="DxsLvJLaP1TClayyJhD2-29" target="DxsLvJLaP1TClayyJhD2-27">
          <mxGeometry width="50" height="50" relative="1" as="geometry">
            <mxPoint x="250" y="230" as="sourcePoint" />
            <mxPoint x="300" y="180" as="targetPoint" />
          </mxGeometry>
        </mxCell>
        <mxCell id="DxsLvJLaP1TClayyJhD2-37" value="" style="endArrow=none;html=1;rounded=0;" edge="1" parent="DxsLvJLaP1TClayyJhD2-52" source="DxsLvJLaP1TClayyJhD2-28" target="DxsLvJLaP1TClayyJhD2-27">
          <mxGeometry width="50" height="50" relative="1" as="geometry">
            <mxPoint x="270" y="250" as="sourcePoint" />
            <mxPoint x="320" y="200" as="targetPoint" />
          </mxGeometry>
        </mxCell>
        <mxCell id="DxsLvJLaP1TClayyJhD2-56" value="" style="rounded=0;whiteSpace=wrap;html=1;pointerEvents=0;align=center;verticalAlign=top;fontFamily=Helvetica;fontSize=12;fontColor=default;fillColor=none;gradientColor=none;" vertex="1" parent="DxsLvJLaP1TClayyJhD2-68">
          <mxGeometry width="280" height="220" as="geometry" />
        </mxCell>
        <mxCell id="DxsLvJLaP1TClayyJhD2-69" value="" style="group" vertex="1" connectable="0" parent="1">
          <mxGeometry x="730" y="120" width="280" height="250" as="geometry" />
        </mxCell>
        <mxCell id="DxsLvJLaP1TClayyJhD2-51" value="" style="group" vertex="1" connectable="0" parent="DxsLvJLaP1TClayyJhD2-69">
          <mxGeometry x="10" y="40" width="250" height="160" as="geometry" />
        </mxCell>
        <mxCell id="DxsLvJLaP1TClayyJhD2-39" value="ssn" style="ellipse;whiteSpace=wrap;html=1;" vertex="1" parent="DxsLvJLaP1TClayyJhD2-51">
          <mxGeometry y="110" width="70" height="50" as="geometry" />
        </mxCell>
        <mxCell id="DxsLvJLaP1TClayyJhD2-41" value="name" style="ellipse;whiteSpace=wrap;html=1;" vertex="1" parent="DxsLvJLaP1TClayyJhD2-51">
          <mxGeometry x="80" y="110" width="70" height="50" as="geometry" />
        </mxCell>
        <mxCell id="DxsLvJLaP1TClayyJhD2-42" value="age" style="ellipse;whiteSpace=wrap;html=1;" vertex="1" parent="DxsLvJLaP1TClayyJhD2-51">
          <mxGeometry x="180" y="110" width="70" height="50" as="geometry" />
        </mxCell>
        <mxCell id="DxsLvJLaP1TClayyJhD2-43" value="deg_prog" style="ellipse;whiteSpace=wrap;html=1;" vertex="1" parent="DxsLvJLaP1TClayyJhD2-51">
          <mxGeometry x="180" y="5" width="70" height="50" as="geometry" />
        </mxCell>
        <mxCell id="DxsLvJLaP1TClayyJhD2-58" value="" style="rounded=0;whiteSpace=wrap;html=1;pointerEvents=0;align=center;verticalAlign=top;fontFamily=Helvetica;fontSize=12;fontColor=default;fillColor=none;gradientColor=none;" vertex="1" parent="DxsLvJLaP1TClayyJhD2-69">
          <mxGeometry width="280" height="220" as="geometry" />
        </mxCell>
        <mxCell id="DxsLvJLaP1TClayyJhD2-38" value="Graduate" style="rounded=0;whiteSpace=wrap;html=1;" vertex="1" parent="DxsLvJLaP1TClayyJhD2-69">
          <mxGeometry width="120" height="60" as="geometry" />
        </mxCell>
        <mxCell id="DxsLvJLaP1TClayyJhD2-44" value="" style="endArrow=none;html=1;rounded=0;" edge="1" parent="DxsLvJLaP1TClayyJhD2-69" source="DxsLvJLaP1TClayyJhD2-41" target="DxsLvJLaP1TClayyJhD2-38">
          <mxGeometry width="50" height="50" relative="1" as="geometry">
            <mxPoint x="230" y="210" as="sourcePoint" />
            <mxPoint x="280" y="160" as="targetPoint" />
          </mxGeometry>
        </mxCell>
        <mxCell id="DxsLvJLaP1TClayyJhD2-45" value="" style="endArrow=none;html=1;rounded=0;" edge="1" parent="DxsLvJLaP1TClayyJhD2-69" source="DxsLvJLaP1TClayyJhD2-42" target="DxsLvJLaP1TClayyJhD2-38">
          <mxGeometry width="50" height="50" relative="1" as="geometry">
            <mxPoint x="240" y="220" as="sourcePoint" />
            <mxPoint x="290" y="170" as="targetPoint" />
          </mxGeometry>
        </mxCell>
        <mxCell id="DxsLvJLaP1TClayyJhD2-46" value="" style="endArrow=none;html=1;rounded=0;" edge="1" parent="DxsLvJLaP1TClayyJhD2-69" source="DxsLvJLaP1TClayyJhD2-43" target="DxsLvJLaP1TClayyJhD2-38">
          <mxGeometry width="50" height="50" relative="1" as="geometry">
            <mxPoint x="250" y="230" as="sourcePoint" />
            <mxPoint x="300" y="180" as="targetPoint" />
          </mxGeometry>
        </mxCell>
        <mxCell id="DxsLvJLaP1TClayyJhD2-48" value="" style="endArrow=none;html=1;rounded=0;" edge="1" parent="DxsLvJLaP1TClayyJhD2-69" source="DxsLvJLaP1TClayyJhD2-39" target="DxsLvJLaP1TClayyJhD2-38">
          <mxGeometry width="50" height="50" relative="1" as="geometry">
            <mxPoint x="280" y="260" as="sourcePoint" />
            <mxPoint x="330" y="210" as="targetPoint" />
          </mxGeometry>
        </mxCell>
        <mxCell id="DxsLvJLaP1TClayyJhD2-75" value="run" style="shape=rhombus;perimeter=rhombusPerimeter;whiteSpace=wrap;html=1;align=center;pointerEvents=0;verticalAlign=middle;fontFamily=Helvetica;fontSize=12;fontColor=default;fillColor=none;gradientColor=none;" vertex="1" parent="1">
          <mxGeometry x="550" y="570" width="120" height="60" as="geometry" />
        </mxCell>
        <mxCell id="DxsLvJLaP1TClayyJhD2-78" value="1" style="endArrow=none;html=1;rounded=0;fontFamily=Helvetica;fontSize=12;fontColor=default;" edge="1" parent="1" source="DxsLvJLaP1TClayyJhD2-54" target="DxsLvJLaP1TClayyJhD2-75">
          <mxGeometry x="0.563" y="7" relative="1" as="geometry">
            <mxPoint x="460" y="720" as="sourcePoint" />
            <mxPoint x="620" y="720" as="targetPoint" />
            <mxPoint as="offset" />
          </mxGeometry>
        </mxCell>
        <mxCell id="DxsLvJLaP1TClayyJhD2-81" value="" style="endArrow=none;html=1;rounded=0;fontFamily=Helvetica;fontSize=12;fontColor=default;" edge="1" parent="1" source="DxsLvJLaP1TClayyJhD2-55" target="DxsLvJLaP1TClayyJhD2-75">
          <mxGeometry x="0.563" y="7" relative="1" as="geometry">
            <mxPoint x="410" y="670" as="sourcePoint" />
            <mxPoint x="525" y="670" as="targetPoint" />
            <mxPoint as="offset" />
          </mxGeometry>
        </mxCell>
        <mxCell id="DxsLvJLaP1TClayyJhD2-83" value="work-dep" style="shape=rhombus;perimeter=rhombusPerimeter;whiteSpace=wrap;html=1;align=center;pointerEvents=0;verticalAlign=middle;fontFamily=Helvetica;fontSize=12;fontColor=default;fillColor=none;gradientColor=none;" vertex="1" parent="1">
          <mxGeometry x="550" y="670" width="120" height="60" as="geometry" />
        </mxCell>
        <mxCell id="DxsLvJLaP1TClayyJhD2-84" value="" style="fontSize=12;html=1;endArrow=ERoneToMany;rounded=0;fontFamily=Helvetica;fontColor=default;entryX=0;entryY=0.5;entryDx=0;entryDy=0;" edge="1" parent="1" source="DxsLvJLaP1TClayyJhD2-54" target="DxsLvJLaP1TClayyJhD2-83">
          <mxGeometry width="100" height="100" relative="1" as="geometry">
            <mxPoint x="490" y="830" as="sourcePoint" />
            <mxPoint x="590" y="730" as="targetPoint" />
          </mxGeometry>
        </mxCell>
        <mxCell id="DxsLvJLaP1TClayyJhD2-85" value="pct_time" style="ellipse;whiteSpace=wrap;html=1;align=center;pointerEvents=0;verticalAlign=middle;fontFamily=Helvetica;fontSize=12;fontColor=default;fillColor=none;gradientColor=none;" vertex="1" parent="1">
          <mxGeometry x="560" y="780" width="100" height="40" as="geometry" />
        </mxCell>
        <mxCell id="DxsLvJLaP1TClayyJhD2-86" value="" style="endArrow=none;html=1;rounded=0;fontFamily=Helvetica;fontSize=12;fontColor=default;" edge="1" parent="1" source="DxsLvJLaP1TClayyJhD2-85" target="DxsLvJLaP1TClayyJhD2-83">
          <mxGeometry x="0.563" y="7" relative="1" as="geometry">
            <mxPoint x="580" y="790" as="sourcePoint" />
            <mxPoint x="580" y="750" as="targetPoint" />
            <mxPoint as="offset" />
          </mxGeometry>
        </mxCell>
        <mxCell id="DxsLvJLaP1TClayyJhD2-87" value="" style="fontSize=12;html=1;endArrow=ERoneToMany;rounded=0;fontFamily=Helvetica;fontColor=default;exitX=1;exitY=0.5;exitDx=0;exitDy=0;" edge="1" parent="1" source="DxsLvJLaP1TClayyJhD2-83" target="DxsLvJLaP1TClayyJhD2-55">
          <mxGeometry width="100" height="100" relative="1" as="geometry">
            <mxPoint x="470" y="770" as="sourcePoint" />
            <mxPoint x="570" y="670" as="targetPoint" />
          </mxGeometry>
        </mxCell>
        <mxCell id="DxsLvJLaP1TClayyJhD2-93" value="" style="fontSize=12;html=1;endArrow=ERmandOne;startArrow=ERmandOne;rounded=0;fontFamily=Helvetica;fontColor=default;entryX=0.5;entryY=1;entryDx=0;entryDy=0;" edge="1" parent="1" source="DxsLvJLaP1TClayyJhD2-92" target="DxsLvJLaP1TClayyJhD2-58">
          <mxGeometry width="100" height="100" relative="1" as="geometry">
            <mxPoint x="890" y="480" as="sourcePoint" />
            <mxPoint x="930" y="370" as="targetPoint" />
          </mxGeometry>
        </mxCell>
        <mxCell id="DxsLvJLaP1TClayyJhD2-92" value="major" style="shape=rhombus;perimeter=rhombusPerimeter;whiteSpace=wrap;html=1;align=center;pointerEvents=0;verticalAlign=middle;fontFamily=Helvetica;fontSize=12;fontColor=default;fillColor=none;gradientColor=none;" vertex="1" parent="1">
          <mxGeometry x="810" y="400" width="120" height="60" as="geometry" />
        </mxCell>
        <mxCell id="DxsLvJLaP1TClayyJhD2-95" value="N" style="endArrow=none;html=1;rounded=0;fontFamily=Helvetica;fontSize=12;fontColor=default;" edge="1" parent="1" source="DxsLvJLaP1TClayyJhD2-55" target="DxsLvJLaP1TClayyJhD2-92">
          <mxGeometry x="0.563" y="7" relative="1" as="geometry">
            <mxPoint x="690" y="440" as="sourcePoint" />
            <mxPoint x="690" y="330" as="targetPoint" />
            <mxPoint as="offset" />
          </mxGeometry>
        </mxCell>
        <mxCell id="DxsLvJLaP1TClayyJhD2-96" value="manage" style="shape=rhombus;perimeter=rhombusPerimeter;whiteSpace=wrap;html=1;align=center;pointerEvents=0;verticalAlign=middle;fontFamily=Helvetica;fontSize=12;fontColor=default;fillColor=none;gradientColor=none;" vertex="1" parent="1">
          <mxGeometry x="360" y="410" width="120" height="60" as="geometry" />
        </mxCell>
        <mxCell id="DxsLvJLaP1TClayyJhD2-97" value="work-in" style="shape=rhombus;perimeter=rhombusPerimeter;whiteSpace=wrap;html=1;align=center;pointerEvents=0;verticalAlign=middle;fontFamily=Helvetica;fontSize=12;fontColor=default;fillColor=none;gradientColor=none;" vertex="1" parent="1">
          <mxGeometry x="230" y="410" width="120" height="60" as="geometry" />
        </mxCell>
        <mxCell id="DxsLvJLaP1TClayyJhD2-98" value="" style="fontSize=12;html=1;endArrow=ERmandOne;startArrow=ERmandOne;rounded=0;fontFamily=Helvetica;fontColor=default;exitX=0.786;exitY=1;exitDx=0;exitDy=0;exitPerimeter=0;" edge="1" parent="1" source="DxsLvJLaP1TClayyJhD2-56" target="DxsLvJLaP1TClayyJhD2-96">
          <mxGeometry width="100" height="100" relative="1" as="geometry">
            <mxPoint x="490" y="510" as="sourcePoint" />
            <mxPoint x="590" y="410" as="targetPoint" />
          </mxGeometry>
        </mxCell>
        <mxCell id="DxsLvJLaP1TClayyJhD2-99" value="" style="endArrow=none;html=1;rounded=0;fontFamily=Helvetica;fontSize=12;fontColor=default;entryX=0.785;entryY=-0.003;entryDx=0;entryDy=0;entryPerimeter=0;" edge="1" parent="1" source="DxsLvJLaP1TClayyJhD2-96" target="DxsLvJLaP1TClayyJhD2-54">
          <mxGeometry relative="1" as="geometry">
            <mxPoint x="80" y="500" as="sourcePoint" />
            <mxPoint x="240" y="500" as="targetPoint" />
          </mxGeometry>
        </mxCell>
        <mxCell id="DxsLvJLaP1TClayyJhD2-100" value="N" style="resizable=0;html=1;whiteSpace=wrap;align=right;verticalAlign=bottom;pointerEvents=0;fontFamily=Helvetica;fontSize=12;fontColor=default;fillColor=none;gradientColor=none;" connectable="0" vertex="1" parent="DxsLvJLaP1TClayyJhD2-99">
          <mxGeometry x="1" relative="1" as="geometry">
            <mxPoint x="-20" y="-10" as="offset" />
          </mxGeometry>
        </mxCell>
        <mxCell id="DxsLvJLaP1TClayyJhD2-101" value="" style="fontSize=12;html=1;endArrow=ERoneToMany;rounded=0;fontFamily=Helvetica;fontColor=default;exitX=0.326;exitY=0.995;exitDx=0;exitDy=0;exitPerimeter=0;" edge="1" parent="1" source="DxsLvJLaP1TClayyJhD2-56" target="DxsLvJLaP1TClayyJhD2-97">
          <mxGeometry width="100" height="100" relative="1" as="geometry">
            <mxPoint x="400" y="510" as="sourcePoint" />
            <mxPoint x="500" y="410" as="targetPoint" />
          </mxGeometry>
        </mxCell>
        <mxCell id="DxsLvJLaP1TClayyJhD2-102" value="" style="endArrow=none;html=1;rounded=0;fontFamily=Helvetica;fontSize=12;fontColor=default;exitX=0.75;exitY=0;exitDx=0;exitDy=0;" edge="1" parent="1" source="DxsLvJLaP1TClayyJhD2-2" target="DxsLvJLaP1TClayyJhD2-97">
          <mxGeometry relative="1" as="geometry">
            <mxPoint x="370" y="460" as="sourcePoint" />
            <mxPoint x="530" y="460" as="targetPoint" />
          </mxGeometry>
        </mxCell>
        <mxCell id="DxsLvJLaP1TClayyJhD2-103" value="N" style="resizable=0;html=1;whiteSpace=wrap;align=right;verticalAlign=bottom;pointerEvents=0;fontFamily=Helvetica;fontSize=12;fontColor=default;fillColor=none;gradientColor=none;" connectable="0" vertex="1" parent="DxsLvJLaP1TClayyJhD2-102">
          <mxGeometry x="1" relative="1" as="geometry">
            <mxPoint x="-10" y="20" as="offset" />
          </mxGeometry>
        </mxCell>
        <mxCell id="DxsLvJLaP1TClayyJhD2-104" value="work-prog" style="shape=rhombus;perimeter=rhombusPerimeter;whiteSpace=wrap;html=1;align=center;pointerEvents=0;verticalAlign=middle;fontFamily=Helvetica;fontSize=12;fontColor=default;fillColor=none;gradientColor=none;" vertex="1" parent="1">
          <mxGeometry x="558" y="200" width="120" height="60" as="geometry" />
        </mxCell>
        <mxCell id="DxsLvJLaP1TClayyJhD2-105" value="" style="fontSize=12;html=1;endArrow=ERoneToMany;rounded=0;fontFamily=Helvetica;fontColor=default;exitX=1;exitY=0.5;exitDx=0;exitDy=0;entryX=0;entryY=0.5;entryDx=0;entryDy=0;" edge="1" parent="1" source="DxsLvJLaP1TClayyJhD2-56" target="DxsLvJLaP1TClayyJhD2-104">
          <mxGeometry width="100" height="100" relative="1" as="geometry">
            <mxPoint x="610" y="460" as="sourcePoint" />
            <mxPoint x="710" y="360" as="targetPoint" />
          </mxGeometry>
        </mxCell>
        <mxCell id="DxsLvJLaP1TClayyJhD2-106" value="" style="endArrow=none;html=1;rounded=0;fontFamily=Helvetica;fontSize=12;fontColor=default;" edge="1" parent="1" source="DxsLvJLaP1TClayyJhD2-104" target="DxsLvJLaP1TClayyJhD2-58">
          <mxGeometry relative="1" as="geometry">
            <mxPoint x="580" y="410" as="sourcePoint" />
            <mxPoint x="740" y="410" as="targetPoint" />
          </mxGeometry>
        </mxCell>
        <mxCell id="DxsLvJLaP1TClayyJhD2-107" value="N" style="resizable=0;html=1;whiteSpace=wrap;align=right;verticalAlign=bottom;pointerEvents=0;fontFamily=Helvetica;fontSize=12;fontColor=default;fillColor=none;gradientColor=none;" connectable="0" vertex="1" parent="DxsLvJLaP1TClayyJhD2-106">
          <mxGeometry x="1" relative="1" as="geometry" />
        </mxCell>
        <mxCell id="DxsLvJLaP1TClayyJhD2-108" value="advisor" style="shape=rhombus;perimeter=rhombusPerimeter;whiteSpace=wrap;html=1;align=center;pointerEvents=0;verticalAlign=middle;fontFamily=Helvetica;fontSize=12;fontColor=default;fillColor=none;gradientColor=none;" vertex="1" parent="1">
          <mxGeometry x="1070" y="194" width="120" height="60" as="geometry" />
        </mxCell>
        <mxCell id="DxsLvJLaP1TClayyJhD2-109" value="" style="endArrow=none;html=1;rounded=0;fontFamily=Helvetica;fontSize=12;fontColor=default;entryX=0.426;entryY=0.082;entryDx=0;entryDy=0;entryPerimeter=0;" edge="1" parent="1" target="DxsLvJLaP1TClayyJhD2-108">
          <mxGeometry relative="1" as="geometry">
            <mxPoint x="1010" y="199.2" as="sourcePoint" />
            <mxPoint x="1060" y="160" as="targetPoint" />
          </mxGeometry>
        </mxCell>
        <mxCell id="DxsLvJLaP1TClayyJhD2-111" value="" style="endArrow=none;html=1;rounded=0;fontFamily=Helvetica;fontSize=12;fontColor=default;entryX=0.387;entryY=0.875;entryDx=0;entryDy=0;entryPerimeter=0;" edge="1" parent="1" target="DxsLvJLaP1TClayyJhD2-108">
          <mxGeometry relative="1" as="geometry">
            <mxPoint x="1010" y="244.89" as="sourcePoint" />
            <mxPoint x="1070" y="260" as="targetPoint" />
          </mxGeometry>
        </mxCell>
      </root>
    </mxGraphModel>
  </diagram>
</mxfile>
